<?xml version="1.0" encoding="utf-8"?>
<!-- Generator: Adobe Illustrator 18.1.1, SVG Export Plug-In . SVG Version: 6.00 Build 0)  -->
<!DOCTYPE svg PUBLIC "-//W3C//DTD SVG 1.1//EN" "http://www.w3.org/Graphics/SVG/1.1/DTD/svg11.dtd">
<svg version="1.1" xmlns="http://www.w3.org/2000/svg" xmlns:xlink="http://www.w3.org/1999/xlink" x="0px" y="0px"
	 viewBox="0 0 81.7 81.4" enable-background="new 0 0 81.7 81.4" xml:space="preserve">
<g id="Layer_1">
	<g>
		<g>
			<radialGradient id="SVGID_1_" cx="40.8306" cy="40.6923" r="40.7615" gradientUnits="userSpaceOnUse">
				<stop  offset="0" style="stop-color:#4D4D4F"/>
				<stop  offset="0.551" style="stop-color:#A7A9AC"/>
			</radialGradient>
			<path fill="url(#SVGID_1_)" d="M43.3,53c-0.9,0.2-1.8,0.3-2.6,0.3c-3.6,0-7-1.5-9.5-4.2c-3.2,2.4-4,3.1-4.2,3.3l-7.6,11.5l2,10.9
				L34,57.4l0.2,0.1c0.5,0.2,1,0.4,1.6,0.5l0.2,0.1l0,18.4l2.6,4.9l7.4-5l0-14.8L43.3,53z M29.5,46.8c-1.1-2-1.7-4.2-1.7-6.4
				c0-2.2,0.6-4.5,1.7-6.4l-6-4.4L8,24.7l-3,9.4l17.3,5.5l0,0.2c0,0.2,0,0.4,0,0.6c0,0.3,0,0.6,0,0.9l0,0.3L0,48.6l12,6.4l11.2-3.5
				L29.5,46.8z M53.4,39l6.9,0l21.4-6.7l-12-6.4l-13.8,4.4l-0.1-0.2c-0.4-0.6-0.9-1.2-1.3-1.7l-0.2-0.2L62.3,17l-2-10.9L47.8,23.3
				L46,28.7C50.1,30.6,52.9,34.5,53.4,39z M31.1,31.8c2.4-2.7,5.9-4.2,9.5-4.2c0.9,0,1.8,0.1,2.7,0.3l2.4-7.3V4.9L43,0l-7.4,5v17.9
				l-0.2,0.1C35.2,23,35,23,34.8,23.1l-0.2,0.1l-5.5-7.5l-4.1,3l-3.4-4.6l-4.2,3.1l7.4,10L31.1,31.8z M53.4,41.8
				c-0.5,4.6-3.3,8.5-7.5,10.4l2.3,7l4.4,6l4.1-3l3.4,4.6l4.2-3.1l-9.1-12.3l0.1-0.2c0.1-0.2,0.2-0.3,0.4-0.5l0.1-0.2l17.8,5.7
				l3-9.4l-15.7-5L53.4,41.8z"/>
		</g>
	</g>
</g>
<g id="Layer_2">
</g>
</svg>
